<svg width="50" height="50" viewBox="0 0 50 50" fill="none" xmlns="http://www.w3.org/2000/svg">
<g clip-path="url(#clip0_6_358)">
<path d="M32.8334 1.80566H2.2778C1.51074 1.80566 0.888916 2.42749 0.888916 3.19455V42.1112C0.888916 42.8783 1.51074 43.5001 2.2778 43.5001H32.8334C33.6004 43.5001 34.2223 42.8783 34.2223 42.1112V3.19455C34.2223 2.42749 33.6004 1.80566 32.8334 1.80566Z" fill="#1E73BE"/>
<path d="M37.6944 6.5H7.13889C6.37183 6.5 5.75 7.12183 5.75 7.88889V46.8056C5.75 47.5726 6.37183 48.1944 7.13889 48.1944H37.6944C38.4615 48.1944 39.0833 47.5726 39.0833 46.8056V7.88889C39.0833 7.12183 38.4615 6.5 37.6944 6.5Z" fill="url(#paint0_linear_6_358)"/>
<path d="M32.1388 18.9443V30.2499L22.4166 35.9443V24.611L32.1388 18.9443Z" fill="#50E6FF"/>
<path d="M32.1389 18.9444L22.4167 24.6389L12.6945 18.9444L22.4167 13.25L32.1389 18.9444Z" fill="#C3F1FF"/>
<path d="M22.4167 24.6388V35.9443L12.6945 30.2499V18.9443L22.4167 24.6388Z" fill="#9CEBFF"/>
<path d="M12.6945 30.25L22.4167 24.6111V35.9444L12.6945 30.25Z" fill="#C3F1FF"/>
<path d="M32.1388 30.25L22.4166 24.6111V35.9444L32.1388 30.25Z" fill="#9CEBFF"/>
<path d="M42.0833 49.1684C41.9435 49.1684 41.8093 49.1129 41.7104 49.0139C41.6115 48.915 41.5559 48.7809 41.5559 48.641C41.554 47.0427 40.9183 45.5104 39.7881 44.3803C38.658 43.2501 37.1257 42.6144 35.5274 42.6125C35.4582 42.6125 35.3896 42.5989 35.3256 42.5724C35.2616 42.5459 35.2035 42.507 35.1545 42.458C35.1055 42.4091 35.0667 42.3509 35.0401 42.2869C35.0136 42.2229 35 42.1544 35 42.0851C35 42.0158 35.0136 41.9472 35.0401 41.8833C35.0667 41.8193 35.1055 41.7611 35.1545 41.7121C35.2035 41.6632 35.2616 41.6243 35.3256 41.5978C35.3896 41.5713 35.4582 41.5577 35.5274 41.5577C37.1258 41.5558 38.6582 40.9198 39.7881 39.7892C40.9181 38.6586 41.5532 37.1259 41.5541 35.5274C41.5541 35.3875 41.6097 35.2534 41.7086 35.1545C41.8075 35.0556 41.9417 35 42.0816 35C42.2215 35 42.3556 35.0556 42.4545 35.1545C42.5534 35.2534 42.609 35.3875 42.609 35.5274C42.6109 37.126 43.2468 38.6586 44.3774 39.7888C45.5079 40.919 47.0407 41.5545 48.6392 41.5559C48.7791 41.5559 48.9133 41.6115 49.0122 41.7104C49.1111 41.8093 49.1667 41.9435 49.1667 42.0833C49.1667 42.2232 49.1111 42.3574 49.0122 42.4563C48.9133 42.5552 48.7791 42.6108 48.6392 42.6108C47.0414 42.6126 45.5096 43.2482 44.3798 44.378C43.2499 45.5078 42.6144 47.0397 42.6125 48.6375C42.6125 48.7067 42.5989 48.7753 42.5724 48.8393C42.5459 48.9033 42.507 48.9615 42.458 49.0104C42.4091 49.0594 42.3509 49.0983 42.2869 49.1248C42.2229 49.1513 42.1544 49.1649 42.0851 49.1649L42.0833 49.1684Z" fill="#1E73BE"/>
<path d="M41.25 8.25044C41.1759 8.25044 41.1049 8.22102 41.0526 8.16866C41.0002 8.11629 40.9708 8.04527 40.9708 7.97122C40.9698 7.12507 40.6332 6.31386 40.0349 5.71554C39.4366 5.11722 38.6254 4.78065 37.7792 4.77967C37.7426 4.77967 37.7062 4.77245 37.6724 4.75841C37.6385 4.74438 37.6077 4.72381 37.5818 4.69788C37.5559 4.67196 37.5353 4.64117 37.5213 4.6073C37.5072 4.57342 37.5 4.53711 37.5 4.50044C37.5 4.46377 37.5072 4.42746 37.5213 4.39359C37.5353 4.35971 37.5559 4.32893 37.5818 4.303C37.6077 4.27707 37.6385 4.2565 37.6724 4.24247C37.7062 4.22844 37.7426 4.22122 37.7792 4.22122C38.6254 4.22023 39.4367 3.8835 40.0349 3.28496C40.6331 2.68641 40.9694 1.87496 40.9698 1.02874C40.9698 0.954682 40.9993 0.88366 41.0516 0.831295C41.104 0.77893 41.175 0.749512 41.2491 0.749512C41.3231 0.749512 41.3941 0.77893 41.4465 0.831295C41.4989 0.88366 41.5283 0.954682 41.5283 1.02874C41.5293 1.87505 41.866 2.6864 42.4645 3.28474C43.063 3.88309 43.8745 4.21955 44.7208 4.22029C44.7948 4.22029 44.8659 4.2497 44.9182 4.30207C44.9706 4.35443 45 4.42546 45 4.49951C45 4.57357 44.9706 4.64459 44.9182 4.69695C44.8659 4.74932 44.7948 4.77874 44.7208 4.77874C43.8749 4.77972 43.0639 5.11619 42.4658 5.71433C41.8676 6.31248 41.5311 7.12345 41.5302 7.96935C41.5302 8.00602 41.5229 8.04233 41.5089 8.07621C41.4949 8.11009 41.4743 8.14087 41.4484 8.1668C41.4224 8.19273 41.3917 8.21329 41.3578 8.22732C41.3239 8.24136 41.2876 8.24858 41.2509 8.24858L41.25 8.25044Z" fill="#1E73BE"/>
</g>
<defs>
<linearGradient id="paint0_linear_6_358" x1="22.4167" y1="48.1944" x2="22.4167" y2="6.5" gradientUnits="userSpaceOnUse">
<stop stop-color="#32BEDD"/>
<stop offset="0.3" stop-color="#36C3E1"/>
<stop offset="0.67" stop-color="#41D2EE"/>
<stop offset="1" stop-color="#50E6FF"/>
</linearGradient>
<clipPath id="clip0_6_358">
<rect width="50" height="50" fill="white"/>
</clipPath>
</defs>
</svg>
