<svg width="50" height="50" viewBox="0 0 50 50" fill="none" xmlns="http://www.w3.org/2000/svg">
<path d="M15.75 29.4722H27.7778V41.4722H15.75V29.4722ZM1.86111 13.4722H13.8889V1.47217H3.41667C2.97464 1.47217 2.55072 1.64776 2.23816 1.96032C1.92559 2.27288 1.75 2.69681 1.75 3.13883L1.86111 13.4722ZM3.52778 41.4722H13.8889V29.4722H1.75V39.8055C1.75 40.2475 1.92559 40.6715 2.23816 40.984C2.55072 41.2966 2.97464 41.4722 3.41667 41.4722H3.52778ZM1.86111 27.5833H13.8889V15.4722H1.75L1.86111 27.5833ZM29.8611 41.4722H40.1944C40.6365 41.4722 41.0604 41.2966 41.373 40.984C41.6855 40.6715 41.8611 40.2475 41.8611 39.8055V29.4722H29.75L29.8611 41.4722ZM15.9722 27.5833H27.7778V15.4722H15.75L15.9722 27.5833ZM29.8611 27.5833H41.6667V15.4722H29.75L29.8611 27.5833ZM29.8611 1.58328V13.4722H41.6667V3.13883C41.6667 2.69681 41.4911 2.27288 41.1785 1.96032C40.866 1.64776 40.442 1.47217 40 1.47217L29.8611 1.58328ZM15.9722 13.5833H27.7778V1.47217H15.75L15.9722 13.5833Z" fill="url(#paint0_linear_6_346)"/>
<path d="M48.25 29.7222V42.2499L37.5 48.5277V35.9999L48.25 29.7222Z" fill="#32BEDD"/>
<path d="M48.25 29.7221L37.5 36.0277L26.75 29.7221L37.5 23.4443L48.25 29.7221Z" fill="#9CEBFF"/>
<path d="M37.5 36.0277V48.5277L26.75 42.2499V29.7222L37.5 36.0277Z" fill="#50E6FF"/>
<path d="M26.75 42.25L37.5 36V48.5278L26.75 42.25Z" fill="#9CEBFF"/>
<path d="M48.25 42.25L37.5 36V48.5278L48.25 42.25Z" fill="#50E6FF"/>
<defs>
<linearGradient id="paint0_linear_6_346" x1="22.3056" y1="1.5555" x2="22.3056" y2="41.5555" gradientUnits="userSpaceOnUse">
<stop stop-color="#5EA0EF"/>
<stop offset="0.18" stop-color="#589EED"/>
<stop offset="0.41" stop-color="#4897E9"/>
<stop offset="0.66" stop-color="#2E8CE1"/>
<stop offset="0.94" stop-color="#0A7CD7"/>
<stop offset="1" stop-color="#1E73BE"/>
</linearGradient>
</defs>
</svg>
