<svg width="50" height="50" viewBox="0 0 50 50" fill="none" xmlns="http://www.w3.org/2000/svg">
<g clip-path="url(#clip0_6_388)">
<path d="M38.7122 46.7714C39.7114 46.7714 40.6698 46.3745 41.3763 45.6679C42.0829 44.9613 42.4799 44.003 42.4799 43.0037C42.5067 42.8577 42.5067 42.708 42.4799 42.562C40.9728 30.6871 34.2429 21.021 21.2509 21.021C8.2589 21.021 1.34715 29.206 0.0219639 42.5879C-0.0319291 43.0866 0.0135948 43.591 0.155902 44.072C0.298209 44.5529 0.534474 45.0009 0.851027 45.3899C1.16758 45.779 1.55814 46.1014 2.00011 46.3385C2.44207 46.5757 2.92667 46.7228 3.42587 46.7714H38.7122Z" fill="url(#paint0_linear_6_388)"/>
<path opacity="0.8" d="M21.2514 23.8292C18.966 23.8274 16.7293 23.169 14.8074 21.9324L21.2514 38.6143L27.5915 22.0363C25.6919 23.2253 23.4924 23.8473 21.2514 23.8292Z" fill="white"/>
<path d="M21.2773 23.8016C27.8498 23.8016 33.178 18.4734 33.178 11.9008C33.178 5.32817 27.8498 0 21.2773 0C14.7047 0 9.37659 5.32817 9.37659 11.9008C9.37659 18.4734 14.7047 23.8016 21.2773 23.8016Z" fill="url(#paint1_linear_6_388)"/>
<path d="M35.4142 32.5C44.2004 32.5 49.5673 39.0385 49.9973 47.9704C50.0124 48.2762 49.9652 48.582 49.8586 48.869C49.752 49.1561 49.5883 49.4185 49.3773 49.6404C49.1662 49.8623 48.9123 50.039 48.631 50.1598C48.3496 50.2806 48.0466 50.343 47.7404 50.3433H23.0924C22.7866 50.3411 22.4843 50.2773 22.2037 50.1557C21.9231 50.0341 21.6699 49.8571 21.4592 49.6354C21.2485 49.4137 21.0847 49.1518 20.9775 48.8653C20.8704 48.5788 20.8221 48.2737 20.8356 47.9681C21.2747 39.0385 26.6438 32.5 35.4142 32.5Z" fill="#50E6FF"/>
<path d="M23.0923 48.8274C22.9909 48.8289 22.8903 48.8095 22.7967 48.7704C22.7032 48.7312 22.6187 48.6732 22.5486 48.5999C22.4772 48.526 22.4217 48.4381 22.3857 48.3418C22.3497 48.2456 22.3339 48.1429 22.3393 48.0402C22.7602 39.5042 28.6367 34.0122 35.4141 34.0122C42.1915 34.0122 48.0839 39.5042 48.4934 48.0402C48.4988 48.1429 48.483 48.2456 48.447 48.3418C48.411 48.4381 48.3555 48.526 48.2841 48.5999C48.214 48.6732 48.1295 48.7312 48.0359 48.7704C47.9424 48.8095 47.8417 48.8289 47.7403 48.8274H23.0923Z" fill="url(#paint2_linear_6_388)"/>
<path d="M42.485 38.7201C40.7377 37.1435 38.5144 36.1947 36.1671 36.0242V40.9497C37.2426 41.0903 38.2586 41.524 39.1042 42.2032L42.485 38.7201Z" fill="#9CEBFF"/>
<path d="M28.3455 38.7201L31.7262 42.1964C32.5725 41.5196 33.5885 41.0884 34.6633 40.9497V36.0242C32.316 36.1947 30.0927 37.1435 28.3455 38.7201Z" fill="#50E6FF"/>
<path d="M40.1692 43.2916C40.8339 44.173 41.2538 45.2145 41.3863 46.3106H46.164C46.0091 43.9211 45.093 41.644 43.5499 39.813L40.1692 43.2916Z" fill="#9CEBFF"/>
<path d="M30.6636 43.2916L27.2806 39.813C25.7356 41.6428 24.8165 43.9188 24.6575 46.3083H29.4351C29.5705 45.2117 29.9945 44.1708 30.6636 43.2916Z" fill="#32BEDD"/>
<path d="M44.2143 42.2116C44.1417 42.026 43.9984 41.8767 43.8158 41.7965C43.6333 41.7163 43.4264 41.7118 43.2406 41.7839L36.1879 44.5959L36.7362 45.9973L43.7888 43.1876C43.9743 43.1141 44.1231 42.9702 44.2028 42.7873C44.2825 42.6045 44.2866 42.3975 44.2143 42.2116Z" fill="#32BEDD"/>
<path d="M35.4142 47.6673C36.5501 47.6673 37.4709 46.7465 37.4709 45.6106C37.4709 44.4747 36.5501 43.554 35.4142 43.554C34.2783 43.554 33.3575 44.4747 33.3575 45.6106C33.3575 46.7465 34.2783 47.6673 35.4142 47.6673Z" fill="#767676"/>
</g>
<defs>
<linearGradient id="paint0_linear_6_388" x1="21.25" y1="46.7653" x2="21.25" y2="21.0257" gradientUnits="userSpaceOnUse">
<stop stop-color="#1E73BE"/>
<stop offset="1" stop-color="#5EA0EF"/>
</linearGradient>
<linearGradient id="paint1_linear_6_388" x1="21.2773" y1="23.796" x2="21.2773" y2="0.0043904" gradientUnits="userSpaceOnUse">
<stop stop-color="#1E73BE"/>
<stop offset="1" stop-color="#5EA0EF"/>
</linearGradient>
<linearGradient id="paint2_linear_6_388" x1="35.4163" y1="34.5423" x2="35.4163" y2="48.5134" gradientUnits="userSpaceOnUse">
<stop stop-color="white"/>
<stop offset="1" stop-color="#F2F2F2"/>
</linearGradient>
<clipPath id="clip0_6_388">
<rect width="50" height="50" fill="white"/>
</clipPath>
</defs>
</svg>
