<svg width="50" height="50" viewBox="0 0 50 50" fill="none" xmlns="http://www.w3.org/2000/svg">
<g clip-path="url(#clip0_6_407)">
<path d="M29.6 0H18.975C18.8778 0 18.7778 0.00833333 18.6806 0.0138889C18.5834 0.00833333 18.4862 0 18.3862 0H7.76116C4.74449 0 2.30005 2.44722 2.30005 5.46389V37.0389C2.30005 37.7944 2.45283 38.5111 2.7306 39.1667C3.56116 41.1278 5.50005 42.5028 7.76394 42.5028H29.6028C31.8667 42.5028 33.8084 41.1278 34.6362 39.1667C34.9139 38.5139 35.0667 37.7944 35.0667 37.0389V5.46389C35.0639 2.44722 32.6167 0 29.6 0Z" fill="url(#paint0_linear_6_407)"/>
<path opacity="0.8" d="M27.1973 28.686H8.96394C8.47505 28.6944 8.0695 28.3027 8.06117 27.8138C8.05283 27.3249 8.4445 26.9194 8.93339 26.911C8.94172 26.911 8.95283 26.911 8.96117 26.911H27.1945C27.6834 26.9027 28.0889 27.2944 28.0973 27.7832C28.1056 28.2721 27.7139 28.6777 27.2251 28.686C27.2167 28.686 27.2056 28.686 27.1973 28.686Z" fill="white"/>
<path opacity="0.6" d="M23.4806 32.3695H8.96394C8.47505 32.3778 8.0695 31.9861 8.06117 31.4973C8.05283 31.0084 8.4445 30.6028 8.93339 30.5945C8.94172 30.5945 8.95283 30.5945 8.96117 30.5945H23.4778C23.9667 30.6028 24.3584 31.0056 24.3501 31.4973C24.3417 31.975 23.9556 32.3611 23.4778 32.3695H23.4806Z" fill="white"/>
<path opacity="0.4" d="M27.1973 36.0527H8.96394C8.47505 36.0611 8.0695 35.6694 8.06117 35.1805C8.05283 34.6916 8.4445 34.2861 8.93339 34.2777C8.94172 34.2777 8.95283 34.2777 8.96117 34.2777H27.1945C27.6834 34.2694 28.0889 34.6611 28.0973 35.1499C28.1056 35.6388 27.7139 36.0444 27.2251 36.0527C27.2167 36.0527 27.2056 36.0527 27.1973 36.0527Z" fill="white"/>
<path opacity="0.2" d="M9.8889 22.7971V23.9193C9.89723 24.4082 9.50557 24.8138 9.01668 24.8221C8.52779 24.8304 8.12223 24.4388 8.1139 23.9499C8.1139 23.9415 8.1139 23.9304 8.1139 23.9221V22.7999C8.10557 22.311 8.49723 21.9054 8.98612 21.8971C9.47501 21.8888 9.88057 22.2804 9.8889 22.7693C9.8889 22.7777 9.8889 22.7888 9.8889 22.7971Z" fill="white"/>
<path opacity="0.3" d="M14.4889 17.9804V23.9193C14.4972 24.4082 14.1055 24.8137 13.6166 24.8221C13.1278 24.8304 12.7222 24.4387 12.7139 23.9499C12.7139 23.9415 12.7139 23.9304 12.7139 23.9221V17.9832C12.7222 17.4943 13.125 17.1026 13.6166 17.111C14.0944 17.1193 14.4805 17.5026 14.4889 17.9804Z" fill="white"/>
<path opacity="0.5" d="M19.0862 13.5083V23.9194C19.0945 24.4083 18.7028 24.8138 18.2139 24.8222C17.7251 24.8305 17.3195 24.4388 17.3112 23.95C17.3112 23.9416 17.3112 23.9305 17.3112 23.9222V13.5111C17.3028 13.0222 17.6945 12.6166 18.1834 12.6083C18.6723 12.6 19.0778 12.9916 19.0862 13.4805C19.0862 13.4888 19.0862 13.5 19.0862 13.5083Z" fill="white"/>
<path opacity="0.6" d="M23.6861 9.60555V23.9194C23.6945 24.4083 23.3028 24.8139 22.8139 24.8222C22.325 24.8305 21.9195 24.4389 21.9111 23.95C21.9111 23.9417 21.9111 23.9305 21.9111 23.9222V9.60555C21.9028 9.11666 22.2945 8.7111 22.7834 8.70277C23.2723 8.69443 23.6778 9.0861 23.6861 9.57499C23.6861 9.58332 23.6861 9.59721 23.6861 9.60555Z" fill="white"/>
<path opacity="0.8" d="M28.2833 6.4222V23.9194C28.2916 24.4083 27.9 24.8139 27.4111 24.8222C26.9222 24.8305 26.5166 24.4389 26.5083 23.95C26.5083 23.9416 26.5083 23.9305 26.5083 23.9222V6.4222C26.5 5.93331 26.8916 5.52775 27.3805 5.51942C27.8694 5.51108 28.275 5.90275 28.2833 6.39164C28.2833 6.39997 28.2833 6.41386 28.2833 6.4222Z" fill="white"/>
<path d="M47.2528 49.4027L47.1028 49.5527C46.5056 50.1499 45.5361 50.1499 44.9389 49.5527L37.6945 42.3083L40.0083 39.9944L47.2528 47.2388C47.85 47.8361 47.85 48.8055 47.2528 49.4027Z" fill="#198AB3"/>
<path d="M33.0334 24.8916C27.5889 24.8916 23.175 29.3055 23.175 34.7499C23.175 40.1944 27.5889 44.6083 33.0334 44.6083C38.4778 44.6083 42.8917 40.1944 42.8917 34.7499C42.8917 29.3055 38.4778 24.8916 33.0334 24.8916ZM33.0528 42.3166C28.7778 42.3166 25.3112 38.8499 25.3112 34.5749C25.3112 30.2999 28.7778 26.8333 33.0528 26.8333C37.3278 26.8333 40.7945 30.2999 40.7945 34.5749C40.7945 38.8499 37.3278 42.3166 33.0528 42.3166Z" fill="url(#paint1_radial_6_407)"/>
<path d="M37.6668 28.3582C34.9779 26.2999 31.2501 26.2721 28.5306 28.2888C38.4334 25.8832 40.5529 36.4888 40.5529 36.4888C41.3834 33.4416 40.2306 30.1999 37.6668 28.3582Z" fill="#C3F1FF"/>
<path opacity="0.2" d="M33.0334 44.6083C38.478 44.6083 42.8917 40.1945 42.8917 34.7499C42.8917 29.3053 38.478 24.8916 33.0334 24.8916C27.5888 24.8916 23.175 29.3053 23.175 34.7499C23.175 40.1945 27.5888 44.6083 33.0334 44.6083Z" fill="url(#paint2_radial_6_407)"/>
<path opacity="0.2" d="M33.0528 42.3166C37.3284 42.3166 40.7945 38.8505 40.7945 34.5749C40.7945 30.2993 37.3284 26.8333 33.0528 26.8333C28.7772 26.8333 25.3112 30.2993 25.3112 34.5749C25.3112 38.8505 28.7772 42.3166 33.0528 42.3166Z" fill="white"/>
</g>
<defs>
<linearGradient id="paint0_linear_6_407" x1="18.6834" y1="42.4927" x2="18.6834" y2="0.00783999" gradientUnits="userSpaceOnUse">
<stop stop-color="#1E73BE"/>
<stop offset="1" stop-color="#5EA0EF"/>
</linearGradient>
<radialGradient id="paint1_radial_6_407" cx="0" cy="0" r="1" gradientUnits="userSpaceOnUse" gradientTransform="translate(33.0334 34.7499) scale(9.85833)">
<stop offset="0.225" stop-color="#32D4F5"/>
<stop offset="0.59" stop-color="#32D2F2"/>
<stop offset="0.825" stop-color="#32CAEA"/>
<stop offset="1" stop-color="#32BEDD"/>
</radialGradient>
<radialGradient id="paint2_radial_6_407" cx="0" cy="0" r="1" gradientUnits="userSpaceOnUse" gradientTransform="translate(33.0334 34.7499) rotate(180) scale(9.85833)">
<stop offset="0.225" stop-color="#32D4F5"/>
<stop offset="0.59" stop-color="#32D2F2"/>
<stop offset="0.825" stop-color="#32CAEA"/>
<stop offset="1" stop-color="#32BEDD"/>
</radialGradient>
<clipPath id="clip0_6_407">
<rect width="50" height="50" fill="white"/>
</clipPath>
</defs>
</svg>
