<svg width="50" height="50" viewBox="0 0 50 50" fill="none" xmlns="http://www.w3.org/2000/svg">
<g clip-path="url(#clip0_6_375)">
<path d="M42.8 26.9444C42.3222 25.8333 40.0222 25.2777 40.5194 22.6805C41.5545 19.0096 41.4147 15.1068 40.1194 11.5194C39.0035 9.29184 37.3183 7.39907 35.2347 6.0331C33.1511 4.66713 30.7433 3.87657 28.2555 3.74162C26.2048 3.56106 24.1423 3.56106 22.0916 3.74162C19.604 3.87713 17.1964 4.66792 15.1129 6.03382C13.0294 7.39973 11.3441 9.2922 10.2277 11.5194C8.93189 15.1068 8.79297 19.0101 9.83051 22.6805C10.325 25.2777 8.02773 25.8333 7.54995 26.9444C6.71662 28.8638 8.66106 33.3138 9.27495 35.1944C9.88884 37.075 12.7472 36.0972 13.475 37.7444C15.7666 42.9472 18.6916 46.6972 24.4138 47.0805C24.5914 47.106 24.7706 47.119 24.95 47.1194C25.0277 47.1194 25.0972 47.1194 25.175 47.1194C25.2527 47.1194 25.3222 47.1194 25.3972 47.1194C25.5766 47.1192 25.7557 47.1062 25.9333 47.0805C31.6583 46.6972 34.5833 42.9472 36.875 37.7444C37.6 36.0972 40.4611 37.0777 41.075 35.1944C41.6888 33.3111 43.6111 28.8527 42.8 26.9444Z" fill="url(#paint0_linear_6_375)"/>
<path d="M1.66668 13.6333C1.45706 13.6337 1.24943 13.5927 1.05566 13.5128C0.861892 13.4328 0.685794 13.3154 0.537442 13.1673C0.389089 13.0192 0.271395 12.8433 0.191093 12.6497C0.110791 12.4561 0.0694577 12.2485 0.069458 12.0389V1.59445C0.0694577 1.38483 0.110791 1.17727 0.191093 0.983637C0.271395 0.790009 0.389089 0.614115 0.537442 0.466021C0.685794 0.317927 0.861892 0.200539 1.05566 0.120574C1.24943 0.0406093 1.45706 -0.000362771 1.66668 2.41989e-06H11.4445C11.8562 0.0171836 12.2453 0.192827 12.5306 0.490224C12.8158 0.787621 12.9751 1.18376 12.9751 1.59584C12.9751 2.00792 12.8158 2.40405 12.5306 2.70145C12.2453 2.99884 11.8562 3.17449 11.4445 3.19167H3.26668V12.0389C3.26668 12.2487 3.22526 12.4565 3.14478 12.6503C3.06431 12.8442 2.94636 13.0202 2.79772 13.1683C2.64907 13.3164 2.47264 13.4338 2.27855 13.5136C2.08447 13.5934 1.87653 13.6341 1.66668 13.6333Z" fill="#50E6FF"/>
<path d="M48.3334 13.6333C48.124 13.6333 47.9167 13.5921 47.7232 13.512C47.5298 13.4318 47.354 13.3144 47.2059 13.1663C47.0579 13.0183 46.9404 12.8425 46.8603 12.6491C46.7802 12.4556 46.7389 12.2483 46.7389 12.0389V3.19167H38.55C38.1383 3.17449 37.7492 2.99884 37.4639 2.70145C37.1787 2.40405 37.0194 2.00792 37.0194 1.59584C37.0194 1.18376 37.1787 0.787621 37.4639 0.490224C37.7492 0.192827 38.1383 0.0171836 38.55 2.41989e-06H48.3334C48.543 -0.000362771 48.7506 0.0406093 48.9444 0.120574C49.1382 0.200539 49.3143 0.317927 49.4626 0.466021C49.611 0.614115 49.7287 0.790009 49.809 0.983637C49.8893 1.17727 49.9306 1.38483 49.9306 1.59445V12.0389C49.9306 12.2485 49.8893 12.4561 49.809 12.6497C49.7287 12.8433 49.611 13.0192 49.4626 13.1673C49.3143 13.3154 49.1382 13.4328 48.9444 13.5128C48.7506 13.5927 48.543 13.6337 48.3334 13.6333Z" fill="#50E6FF"/>
<path d="M11.45 49.9999H1.66668C1.45706 50.0003 1.24943 49.9593 1.05566 49.8794C0.861892 49.7994 0.685794 49.682 0.537442 49.5339C0.389089 49.3858 0.271395 49.2099 0.191093 49.0163C0.110791 48.8227 0.0694577 48.6151 0.069458 48.4055V37.961C0.0866392 37.5493 0.262283 37.1602 0.55968 36.8749C0.857077 36.5897 1.25321 36.4304 1.66529 36.4304C2.07737 36.4304 2.47351 36.5897 2.7709 36.8749C3.0683 37.1602 3.24394 37.5493 3.26112 37.961V46.8083H11.45C11.8617 46.8254 12.2509 47.0011 12.5361 47.2985C12.8214 47.5959 12.9806 47.992 12.9806 48.4041C12.9806 48.8162 12.8214 49.2123 12.5361 49.5097C12.2509 49.8071 11.8617 49.9828 11.45 49.9999Z" fill="#50E6FF"/>
<path d="M48.3333 49.9999H38.5555C38.1438 49.9828 37.7547 49.8071 37.4694 49.5097C37.1842 49.2123 37.0249 48.8162 37.0249 48.4041C37.0249 47.992 37.1842 47.5959 37.4694 47.2985C37.7547 47.0011 38.1438 46.8254 38.5555 46.8083H46.7389V37.961C46.756 37.5493 46.9317 37.1602 47.2291 36.8749C47.5265 36.5897 47.9226 36.4304 48.3347 36.4304C48.7468 36.4304 49.1429 36.5897 49.4403 36.8749C49.7377 37.1602 49.9134 37.5493 49.9305 37.961V48.4055C49.9305 48.6151 49.8892 48.8227 49.8089 49.0163C49.7286 49.2099 49.6109 49.3858 49.4625 49.5339C49.3142 49.682 49.1381 49.7994 48.9443 49.8794C48.7506 49.9593 48.5429 50.0003 48.3333 49.9999Z" fill="#50E6FF"/>
</g>
<defs>
<linearGradient id="paint0_linear_6_375" x1="25.175" y1="3.58884" x2="25.175" y2="47.1083" gradientUnits="userSpaceOnUse">
<stop offset="0.225" stop-color="#5EA0EF"/>
<stop offset="1" stop-color="#1E73BE"/>
</linearGradient>
<clipPath id="clip0_6_375">
<rect width="50" height="50" fill="white"/>
</clipPath>
</defs>
</svg>
