<svg width="272" height="148" viewBox="0 0 272 148" fill="none" xmlns="http://www.w3.org/2000/svg">
<path fill-rule="evenodd" clip-rule="evenodd" d="M122.9 132.1C122.7 131.8 122.8 131.3 123.2 130.9C123.6 130.5 124.2 130.4 124.4 130.7C124.6 131 124.5 131.5 124.1 131.9C123.7 132.2 123.1 132.3 122.9 132.1ZM148.2 132.5C148 132.8 147.7 133.1 147.4 133C147.1 133 147 132.7 147.2 132.4C147.4 132.1 147.7 131.8 148 131.9C148.3 131.9 148.4 132.2 148.2 132.5ZM174.5 126.8C174.2 126.9 173.9 126.7 174 126.4C174 126.1 174.3 125.8 174.7 125.7C175 125.6 175.3 125.8 175.2 126.1C175.1 126.4 174.8 126.7 174.5 126.8ZM221.7 85C221.3 85.2 221 85.1 221 84.7C221 84.4 221.3 84 221.6 83.8C222 83.6 222.3 83.7 222.3 84.1C222.3 84.4 222 84.8 221.7 85ZM171.2 40.3C171.6 40.1 172 40.2 172 40.6C172 41 171.7 41.4 171.3 41.6C170.9 41.8 170.5 41.7 170.5 41.3C170.5 41 170.8 40.5 171.2 40.3ZM177.4 35.3C178 35.1 178.4 35.4 178.3 35.9C178.2 36.4 177.7 37 177.2 37.2C176.6 37.4 176.2 37.1 176.3 36.6C176.3 36.1 176.8 35.5 177.4 35.3ZM184.3 31.1C184.8 31.4 184.8 32.1 184.2 32.8C183.7 33.5 182.8 33.8 182.3 33.6C181.8 33.3 181.8 32.6 182.4 31.9C182.9 31.2 183.8 30.9 184.3 31.1ZM190.8 27.6C191.4 27.9 191.3 28.8 190.7 29.5C190.1 30.3 189.1 30.6 188.6 30.3C188 30 188.1 29.1 188.7 28.4C189.3 27.7 190.3 27.3 190.8 27.6ZM197.4 25C198 25.3 198 26.3 197.3 27.1C196.6 27.9 195.6 28.4 194.9 28C194.3 27.7 194.3 26.7 195 25.9C195.7 25 196.8 24.6 197.4 25ZM203.9 23.1C204.6 23.5 204.6 24.5 203.8 25.5C203 26.4 201.9 26.9 201.2 26.5C200.5 26.1 200.5 25.1 201.3 24.1C202 23.2 203.2 22.7 203.9 23.1ZM210.2 22.1C211 22.5 210.9 23.7 210.1 24.7C209.3 25.7 207.9 26.3 207.2 25.9C206.4 25.5 206.5 24.3 207.3 23.3C208.1 22.2 209.4 21.7 210.2 22.1ZM216 24.9C215.1 26.1 213.6 26.6 212.7 26.2C211.8 25.8 211.9 24.4 212.8 23.3C213.7 22.1 215.2 21.6 216.1 22C217 22.4 217 23.7 216 24.9ZM221.4 25.9C220.4 27.1 218.9 27.7 218 27.3C217.1 26.8 217.2 25.4 218.1 24.2C219.1 23 220.6 22.4 221.5 22.8C222.5 23.3 222.4 24.7 221.4 25.9ZM226.2 27.8C227.2 26.5 227.3 25.1 226.4 24.6C225.5 24.1 223.9 24.7 222.8 26C221.8 27.3 221.7 28.7 222.7 29.2C223.6 29.7 225.2 29.1 226.2 27.8ZM230.1 30.5C229.1 31.7 227.6 32.3 226.7 31.9C225.8 31.4 225.9 30 226.8 28.8C227.8 27.6 229.3 27 230.2 27.4C231.2 27.9 231.1 29.3 230.1 30.5ZM233.3 33.9C234.2 32.7 234.3 31.4 233.4 31C232.5 30.5 231.1 31.1 230.1 32.3C229.2 33.5 229.1 34.8 230 35.2C230.9 35.7 232.4 35.1 233.3 33.9ZM235.6 38.1C234.8 39.1 233.4 39.7 232.7 39.3C231.9 38.9 232 37.7 232.8 36.7C233.6 35.7 235 35.1 235.7 35.5C236.5 35.8 236.4 37 235.6 38.1ZM237 42.8C236.2 43.7 235.1 44.2 234.4 43.8C233.7 43.4 233.8 42.4 234.5 41.4C235.3 40.5 236.4 40 237.1 40.4C237.8 40.8 237.7 41.9 237 42.8ZM237.4 48.2C236.7 49 235.7 49.5 235 49.1C234.4 48.8 234.4 47.8 235.1 47C235.8 46.2 236.8 45.7 237.5 46.1C238.2 46.4 238.1 47.3 237.4 48.2ZM237 53.9C236.4 54.7 235.4 55 234.9 54.7C234.3 54.4 234.4 53.5 235 52.8C235.6 52 236.6 51.7 237.1 52C237.7 52.3 237.6 53.1 237 53.9ZM235.7 59.9C235.1 60.6 234.3 60.9 233.8 60.7C233.3 60.4 233.3 59.7 233.9 59C234.5 58.3 235.3 58 235.8 58.2C236.3 58.5 236.3 59.3 235.7 59.9ZM233.4 66.1C233 66.6 232.3 66.9 232 66.7C231.6 66.5 231.7 65.9 232.1 65.4C232.5 64.9 233.2 64.6 233.5 64.8C233.8 65 233.8 65.6 233.4 66.1ZM230.2 72.3C229.9 72.7 229.4 72.9 229.1 72.7C228.8 72.5 228.8 72.1 229.2 71.7C229.5 71.3 230 71.1 230.3 71.3C230.6 71.5 230.6 72 230.2 72.3ZM226.1 78.9C225.7 79.1 225.4 79 225.4 78.6C225.4 78.3 225.7 77.8 226.1 77.7C226.5 77.5 226.8 77.6 226.8 78C226.8 78.3 226.5 78.7 226.1 78.9ZM178.4 28.8C178.7 28.6 179.1 28.6 179.2 28.9C179.3 29.2 179.1 29.5 178.7 29.8C178.4 30 178 30 177.9 29.7C177.9 29.4 178.1 29 178.4 28.8ZM210.1 101.9C210.5 101.7 210.8 101.7 210.9 102C211 102.3 210.8 102.7 210.4 102.9C210.1 103.1 209.7 103.1 209.6 102.8C209.5 102.5 209.7 102.1 210.1 101.9ZM216.6 96C217.1 95.7 217.5 95.7 217.6 96.1C217.7 96.5 217.4 97 217 97.3C216.5 97.6 216.1 97.6 216 97.2C215.9 96.8 216.2 96.3 216.6 96ZM222.7 89.5C223.3 89.1 223.9 89.2 224.1 89.6C224.2 90.1 223.9 90.8 223.2 91.2C222.6 91.6 221.9 91.5 221.8 91C221.6 90.6 222 89.9 222.7 89.5ZM228 82.4C228.8 81.9 229.7 81.9 229.9 82.6C230.1 83.2 229.6 84.2 228.8 84.8C228 85.3 227.1 85.2 226.9 84.6C226.7 83.9 227.2 83 228 82.4ZM232.7 75.2C233.6 74.6 234.6 74.7 234.8 75.4C235 76.1 234.4 77.2 233.5 77.8C232.6 78.4 231.6 78.3 231.4 77.6C231.2 76.9 231.8 75.8 232.7 75.2ZM236.5 67.8C237.5 67.1 238.6 67.2 238.8 68C239 68.8 238.4 70 237.4 70.7C236.4 71.4 235.3 71.3 235.1 70.5C234.9 69.7 235.5 68.5 236.5 67.8ZM239.4 60.4C240.5 59.7 241.7 59.8 242 60.7C242.3 61.6 241.6 62.9 240.4 63.7C239.3 64.4 238.1 64.3 237.8 63.4C237.6 62.5 238.3 61.2 239.4 60.4ZM239.6 56.4C239.3 55.4 240.1 53.9 241.4 53.1C242.7 52.3 244 52.4 244.3 53.4C244.6 54.4 243.8 55.9 242.5 56.7C241.2 57.5 239.9 57.4 239.6 56.4ZM240.2 49.7C239.9 48.6 240.7 47 242.2 46C243.6 45.1 245 45.2 245.4 46.3C245.7 47.4 244.9 49 243.4 50C242 51 240.6 50.8 240.2 49.7ZM239.9 43.4C239.5 42.2 240.5 40.5 242 39.5C243.5 38.5 245 38.7 245.4 39.8C245.8 41 244.8 42.7 243.3 43.7C241.8 44.7 240.3 44.5 239.9 43.4ZM238.6 37.5C239 38.7 240.5 38.9 242.1 37.9C243.6 36.9 244.6 35.1 244.2 33.9C243.8 32.7 242.3 32.5 240.7 33.5C239.2 34.5 238.3 36.3 238.6 37.5ZM236.5 32.2C236.1 31 237.1 29.3 238.6 28.3C240.1 27.3 241.6 27.5 242 28.6C242.4 29.8 241.4 31.5 239.9 32.5C238.4 33.5 236.9 33.4 236.5 32.2ZM233.4 27.7C233.7 28.8 235.2 28.9 236.6 28C238 27.1 238.9 25.4 238.6 24.4C238.3 23.3 236.8 23.2 235.4 24.1C233.9 24.9 233.1 26.6 233.4 27.7ZM229.5 23.9C229.2 22.9 230 21.4 231.3 20.6C232.6 19.8 233.9 19.9 234.2 20.9C234.5 21.9 233.7 23.4 232.4 24.2C231.1 25 229.8 24.9 229.5 23.9ZM224.7 21.1C224.4 20.2 225.1 18.9 226.3 18.1C227.5 17.4 228.6 17.5 228.9 18.4C229.2 19.3 228.5 20.6 227.3 21.4C226.2 22.1 225 22 224.7 21.1ZM219.2 19.3C218.9 18.5 219.6 17.3 220.6 16.6C221.6 15.9 222.7 16 222.9 16.8C223.2 17.6 222.5 18.8 221.5 19.5C220.5 20.2 219.4 20.1 219.2 19.3ZM213 18.5C212.8 17.8 213.3 16.7 214.3 16.1C215.2 15.5 216.2 15.6 216.4 16.3C216.6 17 216.1 18.1 215.1 18.7C214.2 19.3 213.2 19.2 213 18.5ZM206.3 18.8C206.1 18.2 206.6 17.2 207.4 16.6C208.2 16.1 209.1 16.1 209.3 16.8C209.5 17.4 209 18.4 208.2 19C207.4 19.5 206.5 19.5 206.3 18.8ZM199.5 20C199.3 19.5 199.7 18.8 200.4 18.4C201 18 201.7 18.1 201.8 18.5C202 19 201.6 19.7 200.9 20.1C200.3 20.5 199.7 20.5 199.5 20ZM192.4 22.2C192.3 21.8 192.6 21.3 193 21C193.5 20.7 193.9 20.7 194.1 21.1C194.2 21.5 193.9 22 193.5 22.3C193 22.6 192.5 22.6 192.4 22.2ZM185.2 25.4C185.1 25.1 185.3 24.7 185.7 24.5C186.1 24.3 186.4 24.3 186.5 24.6C186.6 24.9 186.4 25.3 186 25.5C185.7 25.8 185.3 25.7 185.2 25.4ZM183.7 124.1C183.3 124.2 183.1 124 183.1 123.7C183.1 123.3 183.5 123 183.9 122.9C184.3 122.8 184.5 123 184.5 123.3C184.4 123.6 184.1 124 183.7 124.1ZM198.3 12.4C198.7 12.3 199 12.5 198.9 12.8C198.9 13.2 198.5 13.6 198.1 13.7C197.7 13.8 197.4 13.6 197.5 13.3C197.5 13 197.9 12.6 198.3 12.4ZM207.3 10.7C207.2 11.1 206.9 11.5 206.5 11.6C206.1 11.7 205.8 11.5 205.8 11.1C205.9 10.7 206.2 10.3 206.6 10.2C207 10.1 207.3 10.3 207.3 10.7ZM215.6 9.6C215.5 10.1 215 10.7 214.5 10.9C213.9 11.1 213.5 10.8 213.6 10.3C213.7 9.8 214.2 9.19999 214.7 8.99999C215.3 8.89999 215.7 9.1 215.6 9.6ZM223.5 9.69999C223.4 10.4 222.7 11.1 222 11.4C221.3 11.6 220.7 11.3 220.8 10.6C220.9 9.9 221.6 9.19999 222.3 8.89999C223.1 8.69999 223.6 8.99999 223.5 9.69999ZM230.9 11C230.8 11.9 229.9 12.9 228.9 13.2C227.9 13.5 227.2 13 227.3 12.1C227.4 11.2 228.3 10.2 229.3 9.89999C230.4 9.59999 231.1 10.1 230.9 11ZM237.3 13.4C237.2 14.4 236.2 15.5 235.1 15.9C234 16.3 233.2 15.7 233.4 14.7C233.5 13.7 234.5 12.6 235.6 12.2C236.6 11.9 237.4 12.4 237.3 13.4ZM242.7 17C242.5 18.1 241.4 19.4 240.2 19.8C239 20.2 238.1 19.6 238.3 18.5C238.5 17.4 239.6 16.1 240.8 15.7C242 15.3 242.9 15.9 242.7 17ZM247.2 21.6C247.4 20.3 246.4 19.7 245.1 20.1C243.8 20.5 242.5 21.9 242.3 23.2C242.1 24.5 243.1 25.1 244.4 24.7C245.8 24.3 247 22.9 247.2 21.6ZM250.6 27.2C250.4 28.6 249 30.1 247.5 30.6C246 31.1 244.9 30.3 245.1 28.9C245.3 27.5 246.7 26 248.2 25.5C249.7 25 250.8 25.8 250.6 27.2ZM252.8 33.5C252.6 35.1 251.1 36.8 249.4 37.3C247.7 37.8 246.6 37 246.8 35.5C247 33.9 248.5 32.3 250.2 31.7C251.8 31.1 253 31.9 252.8 33.5ZM253.6 40.6C253.4 42.2 251.8 44 250 44.6C248.2 45.2 247 44.3 247.2 42.6C247.4 41 249 39.2 250.8 38.6C252.6 38.1 253.9 38.9 253.6 40.6ZM249.5 52.3C247.7 52.9 246.4 52 246.7 50.3C246.9 48.6 248.6 46.8 250.4 46.2C252.2 45.6 253.5 46.5 253.2 48.2C253 49.9 251.3 51.8 249.5 52.3ZM247.8 60.3C246.1 60.9 244.8 60 245.1 58.3C245.3 56.7 246.9 54.9 248.7 54.3C250.4 53.7 251.7 54.6 251.4 56.3C251.2 57.9 249.6 59.7 247.8 60.3ZM245 68.4C246.7 67.9 248.2 66.2 248.4 64.6C248.6 63 247.5 62.2 245.8 62.7C244.1 63.2 242.6 64.9 242.4 66.5C242.2 68.1 243.3 69 245 68.4ZM241 76.5C242.5 76 243.9 74.5 244 73.1C244.2 71.7 243.2 71 241.7 71.4C240.2 71.9 238.8 73.4 238.7 74.8C238.5 76.2 239.6 77 241 76.5ZM236.1 84.5C234.8 84.9 233.8 84.3 234 83C234.2 81.7 235.4 80.4 236.7 79.9C238 79.5 239 80.1 238.8 81.4C238.6 82.7 237.4 84 236.1 84.5ZM230.2 92.2C229 92.6 228.2 92 228.3 90.9C228.5 89.8 229.6 88.5 230.8 88.1C232 87.7 232.8 88.3 232.7 89.4C232.5 90.6 231.4 91.8 230.2 92.2ZM223.6 99.5C222.5 99.8 221.8 99.3 221.9 98.3C222 97.3 223 96.2 224.1 95.8C225.2 95.4 225.9 96 225.8 97C225.6 98 224.6 99.1 223.6 99.5ZM216.2 106.2C215.2 106.5 214.5 106 214.7 105.1C214.8 104.2 215.7 103.2 216.7 102.9C217.7 102.6 218.4 103.1 218.2 104C218.1 104.8 217.2 105.8 216.2 106.2ZM207.3 111.1C207.4 110.4 208.1 109.7 208.8 109.4C209.5 109.2 210 109.5 209.9 110.2C209.8 110.9 209.1 111.6 208.4 111.9C207.8 112.1 207.2 111.8 207.3 111.1ZM200.4 116.8C199.9 117 199.5 116.7 199.5 116.2C199.6 115.7 200.1 115.1 200.6 114.9C201.1 114.7 201.5 115 201.5 115.5C201.4 116.1 200.9 116.7 200.4 116.8ZM192.1 120.9C191.7 121 191.4 120.8 191.5 120.4C191.6 120 191.9 119.6 192.3 119.5C192.7 119.4 193 119.6 192.9 120C192.8 120.4 192.5 120.8 192.1 120.9ZM227 1.6C226.8 2 226.3 2.4 225.9 2.3C225.5 2.3 225.4 1.89999 225.6 1.39999C225.8 0.999987 226.3 0.59999 226.7 0.69999C227.1 0.79999 227.3 1.2 227 1.6ZM156.9 135C156.7 135.4 156.2 135.7 155.9 135.7C155.5 135.7 155.4 135.3 155.6 134.9C155.8 134.5 156.3 134.2 156.7 134.2C157 134.2 157.1 134.5 156.9 135ZM165.1 134.2C165.5 134.2 165.6 134.7 165.4 135.1C165.2 135.6 164.6 135.9 164.2 135.9C163.8 135.9 163.7 135.4 163.9 135C164.2 134.5 164.7 134.2 165.1 134.2ZM174.3 132.8C174.8 132.9 175 133.4 174.7 134C174.4 134.6 173.7 135.1 173.1 135C172.6 134.9 172.4 134.4 172.7 133.8C173.1 133.2 173.8 132.8 174.3 132.8ZM183.9 129.9C184.6 130 184.8 130.7 184.4 131.5C184 132.3 183 132.9 182.3 132.9C181.6 132.8 181.4 132.1 181.8 131.3C182.3 130.5 183.2 129.9 183.9 129.9ZM193.8 125.6C194.8 125.7 195.1 126.7 194.5 127.8C193.9 128.9 192.7 129.7 191.7 129.6C190.8 129.5 190.4 128.5 191 127.4C191.6 126.4 192.8 125.5 193.8 125.6ZM203.5 120.4C204.6 120.5 204.9 121.6 204.2 122.8C203.6 124 202.2 124.9 201.1 124.8C200 124.7 199.7 123.6 200.4 122.4C201 121.2 202.4 120.3 203.5 120.4ZM212.9 114.1C214.1 114.2 214.4 115.4 213.7 116.8C213 118.2 211.4 119.2 210.3 119.1C209.1 119 208.8 117.8 209.5 116.4C210.2 114.9 211.8 113.9 212.9 114.1ZM222 106.7C223.3 106.8 223.7 108.2 222.9 109.7C222.1 111.2 220.4 112.3 219.1 112.2C217.8 112.1 217.4 110.7 218.2 109.2C219 107.7 220.7 106.6 222 106.7ZM230.6 98.4C229.1 98.2 227.2 99.5 226.3 101.2C225.4 102.9 225.9 104.4 227.3 104.5C228.8 104.7 230.7 103.4 231.6 101.7C232.5 100.1 232.1 98.6 230.6 98.4ZM238.4 89.5C236.8 89.3 234.7 90.7 233.7 92.6C232.7 94.5 233.2 96.1 234.8 96.3C236.4 96.5 238.5 95.1 239.5 93.2C240.5 91.3 240 89.7 238.4 89.5ZM240.2 83.4C241.3 81.4 243.5 80 245.2 80.1C246.9 80.3 247.4 82 246.4 84C245.3 86 243.1 87.4 241.4 87.3C239.7 87.2 239.2 85.4 240.2 83.4ZM245.8 74C246.9 71.9 249.2 70.4 251 70.6C252.8 70.8 253.3 72.6 252.2 74.7C251.1 76.7 248.8 78.3 247 78.1C245.2 77.8 244.7 76 245.8 74ZM250.4 64.4C251.5 62.4 253.7 61 255.4 61.1C257.1 61.3 257.6 63 256.6 65C255.5 67 253.3 68.4 251.6 68.3C249.9 68.1 249.3 66.4 250.4 64.4ZM253.8 54.9C252.8 56.8 253.3 58.4 254.9 58.6C256.5 58.8 258.7 57.4 259.7 55.5C260.7 53.6 260.2 52 258.6 51.8C257 51.7 254.8 53 253.8 54.9ZM256 45.7C256.9 44 258.8 42.8 260.3 42.9C261.8 43 262.2 44.5 261.3 46.2C260.4 47.9 258.5 49.1 257 49C255.6 48.9 255.1 47.4 256 45.7ZM256.8 37C257.6 35.5 259.4 34.4 260.7 34.5C262 34.6 262.4 36 261.6 37.5C260.8 39 259 40.1 257.7 40C256.4 39.8 256 38.5 256.8 37ZM256.2 28.8C256.9 27.4 258.5 26.4 259.7 26.5C260.9 26.6 261.3 27.8 260.5 29.2C259.8 30.6 258.2 31.6 257 31.5C255.8 31.4 255.4 30.2 256.2 28.8ZM254.1 21.5C254.8 20.3 256.2 19.4 257.3 19.5C258.4 19.6 258.7 20.7 258 21.9C257.3 23.1 255.9 24 254.8 23.9C253.8 23.8 253.4 22.7 254.1 21.5ZM250.7 15.1C251.3 14 252.6 13.2 253.5 13.3C254.5 13.4 254.8 14.4 254.2 15.5C253.6 16.6 252.3 17.4 251.4 17.3C250.4 17.2 250.1 16.2 250.7 15.1ZM246.2 9.89999C246.6 9.09999 247.6 8.49999 248.3 8.49999C249 8.59999 249.3 9.3 248.8 10.1C248.4 10.9 247.4 11.5 246.7 11.5C246 11.4 245.8 10.7 246.2 9.89999ZM240.5 5.8C240.8 5.2 241.5 4.7 242.1 4.8C242.6 4.9 242.8 5.39999 242.5 5.99999C242.2 6.59999 241.5 7.09999 240.9 6.99999C240.3 6.89999 240.1 6.4 240.5 5.8ZM233.9 3.89999C233.5 3.89999 233.4 3.39999 233.6 2.99999C233.9 2.49999 234.4 2.19999 234.8 2.19999C235.2 2.19999 235.3 2.7 235.1 3.1C234.8 3.6 234.3 3.89999 233.9 3.89999ZM260 5.49999C259.5 5.89999 259 5.99999 258.7 5.69999C258.4 5.39999 258.6 4.79999 259.1 4.39999C259.6 3.99999 260.1 3.89999 260.4 4.19999C260.6 4.49999 260.4 5.09999 260 5.49999ZM264.7 12.4C264.2 12.8 263.6 13 263.3 12.6C263 12.3 263.2 11.7 263.7 11.2C264.2 10.8 264.8 10.6 265.1 11C265.4 11.3 265.2 11.9 264.7 12.4ZM268.1 20.6C267.5 21.2 266.6 21.3 266.3 20.9C265.9 20.5 266.2 19.7 266.8 19.1C267.4 18.5 268.3 18.4 268.6 18.8C269 19.2 268.7 20 268.1 20.6ZM269.9 29.8C269 30.6 268 30.8 267.5 30.2C267 29.7 267.3 28.6 268.2 27.8C269.1 27 270.1 26.8 270.6 27.4C271.1 28 270.8 29 269.9 29.8ZM270.2 40C269.1 41.1 267.6 41.3 267 40.6C266.4 39.9 266.8 38.4 267.9 37.4C269 36.3 270.5 36.1 271.1 36.8C271.8 37.5 271.3 38.9 270.2 40ZM268.7 50.6C267.4 51.8 265.8 52.1 265.2 51.2C264.5 50.4 265 48.8 266.2 47.6C267.5 46.4 269.1 46.1 269.8 47C270.4 47.8 270 49.4 268.7 50.6ZM265.7 61.6C264.3 62.9 262.5 63.2 261.8 62.3C261 61.4 261.6 59.6 263 58.3C264.4 57 266.2 56.7 266.9 57.6C267.6 58.5 267.1 60.3 265.7 61.6ZM261.2 72.7C262.8 71.3 263.3 69.3 262.5 68.3C261.7 67.3 259.7 67.7 258.1 69.1C256.5 70.5 256 72.5 256.8 73.5C257.7 74.5 259.6 74.2 261.2 72.7ZM255.3 83.9C257 82.3 257.7 80.1 256.7 79C255.8 77.9 253.6 78.3 251.9 79.9C250.2 81.5 249.5 83.7 250.5 84.8C251.4 85.9 253.6 85.5 255.3 83.9ZM242.8 95.7C241.8 94.5 242.5 92 244.4 90.2C246.3 88.4 248.7 88 249.8 89.2C250.8 90.4 250.1 92.9 248.2 94.7C246.3 96.5 243.9 97 242.8 95.7ZM234.3 106.1C233.2 104.8 233.9 102.2 236 100.3C238 98.4 240.6 98 241.7 99.3C242.8 100.6 242 103.2 240 105.1C237.9 106.9 235.4 107.4 234.3 106.1ZM224.9 115.6C226 116.9 228.6 116.5 230.7 114.5C232.8 112.6 233.6 109.9 232.4 108.5C231.3 107.2 228.6 107.6 226.6 109.6C224.5 111.6 223.7 114.3 224.9 115.6ZM215 124C216.1 125.3 218.6 124.8 220.6 123C222.6 121.1 223.4 118.5 222.3 117.2C221.2 115.9 218.7 116.4 216.7 118.2C214.6 120.1 213.9 122.7 215 124ZM204.6 131.3C205.6 132.5 208 132.1 209.9 130.3C211.8 128.5 212.5 126.1 211.5 124.8C210.5 123.6 208.1 124 206.2 125.8C204.2 127.6 203.5 130.1 204.6 131.3ZM194.1 137.2C193.2 136.1 193.8 133.9 195.5 132.3C197.2 130.7 199.4 130.3 200.3 131.4C201.2 132.5 200.6 134.7 198.9 136.3C197.1 138 195 138.4 194.1 137.2ZM183.4 141.8C182.6 140.8 183.1 138.8 184.6 137.4C186.1 136 188.1 135.6 188.9 136.6C189.8 137.6 189.2 139.6 187.7 141C186.2 142.5 184.2 142.8 183.4 141.8ZM172.8 145C172 144.1 172.5 142.3 173.9 141C175.3 139.7 177 139.4 177.8 140.3C178.6 141.2 178.1 143 176.7 144.3C175.3 145.6 173.6 145.9 172.8 145ZM162.5 146.7C161.8 145.9 162.2 144.3 163.5 143.1C164.7 141.9 166.3 141.7 167 142.5C167.7 143.3 167.2 144.9 166 146.1C164.7 147.2 163.2 147.5 162.5 146.7ZM152.7 146.9C152.1 146.2 152.5 144.7 153.6 143.7C154.7 142.7 156.1 142.4 156.7 143.1C157.3 143.8 156.9 145.3 155.8 146.3C154.7 147.3 153.3 147.6 152.7 146.9ZM143.9 145.2C143.4 144.7 143.7 143.6 144.6 142.8C145.4 142 146.5 141.8 147 142.4C147.5 142.9 147.2 144 146.3 144.8C145.4 145.6 144.4 145.8 143.9 145.2ZM135.9 142.1C135.5 141.7 135.8 140.9 136.4 140.3C137 139.7 137.8 139.6 138.2 140C138.6 140.4 138.3 141.2 137.7 141.8C137 142.4 136.2 142.5 135.9 142.1ZM128.8 137.6C128.5 137.3 128.7 136.7 129.2 136.2C129.7 135.8 130.3 135.6 130.5 136C130.8 136.3 130.6 136.9 130.1 137.4C129.7 137.8 129.1 138 128.8 137.6Z" fill="white"/>
<path fill-rule="evenodd" clip-rule="evenodd" d="M27.2 67.3H11.4V66.7C11.4 65.2 11.7 63.5 13 62.6C14.3 61.7 16.2 61.5 17.8 61.5C19.9 61.5 22 61.6999 24.1 61.8999V55.8C22 55.4 19.9 55.1 17.8 55.1C9.79998 55.1 4.69997 58.3 4.69997 66.7V67.3H0.599976V73.7H4.69997V95.2H11.4V73.7H20.5V95.2H27.2V67.3ZM41.3 67.3H34.6V95.2H41.3V80.1C41.3 78.1 41.7 76 43.1 74.5C44.4 73.2 46.1 72.6 47.9 72.6C49.5 72.6 51.1 73 52.3 74.2C53.6 75.4 54 77.1 54 78.8V95.1H60.7V78C60.7 74.9 60 71.8 57.7 69.5C55.7 67.4 53.1 66.5 50.2 66.5C46.9 66.5 43.9 67.4999 42 70.3999L41.3 71.3999V67.3ZM74.4 67.3H67.7V106.7H74.4V91.2L75 92C77.3 94.9 80.4 96 84 96C87.8 96 91 94.5 93.6 91.7C96.4 88.8 97.6 85.2 97.6 81.2C97.6 77.2 96.4 73.6 93.6 70.7C91 67.9 87.8 66.3999 84 66.3999C80.4 66.3999 77.3 67.5999 75 70.3999L74.4 71.2V67.3ZM76.7 87.3C75.1 85.6 74.4 83.6 74.4 81.2C74.4 78.9 75.1 76.8 76.7 75.1C78.3 73.5 80.3 72.7 82.6 72.7C84.9 72.7 86.9 73.4 88.6 75.1C90.3 76.8 91 78.8 91 81.2C91 83.5 90.3 85.6 88.6 87.3C87 88.9 84.9 89.7 82.6 89.7C80.4 89.7 78.3 88.9 76.7 87.3ZM130.8 83.8999C130.9 82.9999 131 82.1 131 81.2C131 77.2 129.8 73.6 127 70.7C124.3 67.8 120.8 66.5 116.9 66.5C112.8 66.5 109.2 67.8 106.3 70.7C103.4 73.6 102.2 77.2 102.2 81.2C102.2 85.3 103.5 88.8999 106.4 91.7999C109.4 94.7999 113.3 96 117.5 96C122.4 96 126.6 94.2999 129.5 90.2999L124.1 87.2C122.5 89.2 120.2 90 117.6 90C113.5 90 110.3 88.4999 109.2 84.3999L109.1 83.8999H130.8ZM109 78.5C109.4 76.7 110.3 75.2 111.7 74C113.2 72.8 115 72.3999 116.8 72.3999C118.5 72.3999 120.1 72.8999 121.5 73.8999C123 74.9999 123.9 76.7 124.2 78.5L124.3 78.8999H108.8L109 78.5ZM143.5 67.3H136.8V95.2H143.5V81.8999C143.5 79.3999 144.2 77.1 146.3 75.7C148.1 74.5 150.1 74.1 152.2 74.2V66.7C150.5 66.8 148.9 67.2 147.4 68C145.8 68.9 144.8 70.2999 144.1 71.8999L143.4 73.7V67.3H143.5ZM160.6 63.1C161.8 63.1 162.8 62.6999 163.6 61.8999C164.4 61.0999 164.8 60.1 164.8 59C164.8 57.8 164.4 56.9 163.6 56C162.8 55.2 161.8 54.7 160.6 54.7C159.4 54.7 158.5 55.1 157.7 56C156.9 56.8 156.5 57.8 156.5 59C156.5 60.2 156.9 61.0999 157.7 61.8999C158.4 62.6999 159.4 63.1 160.6 63.1ZM157.2 95.2H163.9V67.3H157.2V95.2ZM187.1 73.7V67.3H180.6V59.3999L173.9 61.3999V67.3H168.9V73.7H173.9V86C173.9 88.8 174.4 92.0999 176.9 93.8999C179.5 95.7999 184 95.5999 187.1 95.2999V89.3C186 89.4 184.9 89.4 183.9 89.3C183 89.2 182.2 88.9999 181.5 88.3999C180.8 87.7999 180.6 86.8 180.6 86V73.7H187.1ZM196.3 63.1C197.5 63.1 198.5 62.6999 199.3 61.8999C200.1 61.0999 200.5 60.1 200.5 59C200.5 57.8 200.1 56.9 199.3 56C198.5 55.2 197.5 54.7 196.3 54.7C195.1 54.7 194.2 55.1 193.4 56C192.6 56.8 192.2 57.8 192.2 59C192.2 60.2 192.6 61.0999 193.4 61.8999C194.2 62.6999 195.1 63.1 196.3 63.1ZM193 95.2H199.7V67.3H193V95.2Z" fill="white"/>
</svg>
